<svg aria-hidden="true" style="position: absolute; width: 0; height: 0; overflow: hidden;" version="1.1" xmlns="http://www.w3.org/2000/svg" xmlns:xlink="http://www.w3.org/1999/xlink">
<defs>
<symbol id="icon-arrow" viewBox="0 0 66 32">
<path d="M66.462 15.652v0.696c-6.275 3.478-11.553 8.746-13.49 15.652-0.001 0.005-0.444-0.284-0.468-0.293s0.026 0.004 0.028-0.001c1.468-5.283 7.027-11.549 11.096-15.359-19.891 0.492-43.754-0.248-63.628 0.348v-1.391l63.628 0.348c-4.069-3.81-9.506-10.311-10.985-15.652l0.682-0c1.919 6.919 6.011 11.13 13.136 15.652z"></path>
</symbol>
<symbol id="icon-Instagram" viewBox="0 0 32 32">
<path d="M16 2.881c4.275 0 4.781 0.019 6.463 0.094 1.563 0.069 2.406 0.331 2.969 0.55 0.744 0.288 1.281 0.638 1.838 1.194 0.562 0.563 0.906 1.094 1.194 1.838 0.219 0.563 0.481 1.412 0.55 2.969 0.075 1.688 0.094 2.194 0.094 6.462 0 4.275-0.019 4.781-0.094 6.463-0.069 1.563-0.331 2.406-0.55 2.969-0.287 0.744-0.638 1.281-1.194 1.837-0.563 0.563-1.094 0.906-1.838 1.194-0.562 0.219-1.412 0.481-2.969 0.55-1.687 0.075-2.194 0.094-6.463 0.094-4.275 0-4.781-0.019-6.463-0.094-1.563-0.069-2.406-0.331-2.969-0.55-0.744-0.287-1.281-0.637-1.838-1.194-0.563-0.563-0.906-1.094-1.194-1.837-0.219-0.563-0.481-1.413-0.55-2.969-0.075-1.687-0.094-2.194-0.094-6.463 0-4.275 0.019-4.781 0.094-6.462 0.069-1.563 0.331-2.406 0.55-2.969 0.288-0.744 0.638-1.281 1.194-1.838 0.563-0.563 1.094-0.906 1.838-1.194 0.563-0.219 1.412-0.481 2.969-0.55 1.681-0.075 2.188-0.094 6.463-0.094zM16 0c-4.344 0-4.887 0.019-6.594 0.094-1.7 0.075-2.869 0.35-3.881 0.744-1.056 0.412-1.95 0.956-2.837 1.85-0.894 0.888-1.438 1.781-1.85 2.831-0.394 1.019-0.669 2.181-0.744 3.881-0.075 1.713-0.094 2.256-0.094 6.6s0.019 4.887 0.094 6.594c0.075 1.7 0.35 2.869 0.744 3.881 0.413 1.056 0.956 1.95 1.85 2.837 0.887 0.887 1.781 1.437 2.831 1.844 1.019 0.394 2.181 0.669 3.881 0.744 1.706 0.075 2.25 0.094 6.594 0.094s4.887-0.019 6.594-0.094c1.7-0.075 2.869-0.35 3.881-0.744 1.050-0.406 1.944-0.956 2.831-1.844s1.437-1.781 1.844-2.831c0.394-1.019 0.669-2.181 0.744-3.881 0.075-1.706 0.094-2.25 0.094-6.594s-0.019-4.888-0.094-6.594c-0.075-1.7-0.35-2.869-0.744-3.881-0.394-1.063-0.937-1.956-1.831-2.844-0.887-0.887-1.781-1.438-2.831-1.844-1.019-0.394-2.181-0.669-3.881-0.744-1.713-0.081-2.256-0.1-6.6-0.1z"></path>
<path d="M16 7.781c-4.537 0-8.219 3.681-8.219 8.219s3.681 8.219 8.219 8.219c4.537 0 8.219-3.681 8.219-8.219s-3.681-8.219-8.219-8.219zM16 21.331c-2.944 0-5.331-2.387-5.331-5.331s2.387-5.331 5.331-5.331c2.944 0 5.331 2.387 5.331 5.331s-2.387 5.331-5.331 5.331z"></path>
<path d="M26.463 7.456c0 1.063-0.863 1.919-1.919 1.919-1.063 0-1.919-0.863-1.919-1.919 0-1.063 0.862-1.919 1.919-1.919s1.919 0.862 1.919 1.919z"></path>
</symbol>
<symbol id="icon-medium" viewBox="0 0 32 32">
<path d="M18.050 15.77c0 5.028-4.041 9.103-9.025 9.103s-9.025-4.077-9.025-9.103c0-5.027 4.041-9.104 9.025-9.104s9.025 4.076 9.025 9.104z"></path>
<path d="M27.951 15.77c0 4.732-2.020 8.57-4.513 8.57s-4.513-3.838-4.513-8.57c0-4.732 2.020-8.57 4.512-8.57s4.513 3.837 4.513 8.57z"></path>
<path d="M32 15.77c0 4.239-0.711 7.678-1.587 7.678s-1.587-3.438-1.587-7.678 0.71-7.678 1.587-7.678c0.876 0 1.587 3.437 1.587 7.678z"></path>
</symbol>
<symbol id="icon-pet-accessories" viewBox="0 0 38 32">
<path stroke-linejoin="round" stroke-linecap="round" stroke-miterlimit="4" stroke-width="0.9275" d="M7.47 7.236l-0.653 0.383M4.842 8.778l-4.378 2.568 3.149 4.801 15.401-8.816 15.402 8.815 3.149-4.801c0 0-18.518-10.86-18.551-10.882-0.017 0.011-4.819 2.828-9.654 5.664M32.062 23.734v-8.935M5.967 14.799v14.17c-0 0.304 0.060 0.605 0.176 0.886s0.287 0.536 0.502 0.751c0.215 0.215 0.47 0.385 0.751 0.502s0.582 0.176 0.886 0.176h1.332c0.635 0 1.243-0.252 1.692-0.701s0.701-1.058 0.701-1.693v-8.728c0-0.563 0.223-1.102 0.621-1.5s0.937-0.621 1.5-0.621h9.775c0.562 0 1.102 0.224 1.5 0.621s0.621 0.937 0.621 1.5v5.686M34.559 26.961c0.206-0.249 0.351-0.542 0.425-0.856s0.075-0.642 0.002-0.956c-0.117-0.5-0.414-0.939-0.834-1.234s-0.934-0.425-1.443-0.366c-0.51 0.059-0.98 0.304-1.321 0.687s-0.53 0.879-0.529 1.392c0 0.074 0.005 0.22 0.005 0.22h-7.672c0 0 0.007-0.183 0.004-0.277-0.029-1.081-0.912-1.982-1.991-2.032-0.405-0.019-0.808 0.080-1.158 0.286s-0.633 0.509-0.813 0.872c-0.181 0.364-0.252 0.772-0.204 1.175s0.211 0.784 0.471 1.096c0.131 0.162 0.202 0.364 0.201 0.572s-0.074 0.41-0.206 0.57c-0.206 0.249-0.351 0.542-0.425 0.856s-0.075 0.642-0.001 0.956c0.117 0.5 0.414 0.939 0.834 1.234s0.934 0.425 1.443 0.366 0.98-0.304 1.321-0.687c0.341-0.383 0.53-0.879 0.529-1.392 0-0.074-0.005-0.22-0.005-0.22h7.672c0 0-0.006 0.183-0.004 0.277 0.028 1.080 0.91 1.982 1.989 2.032 0.406 0.020 0.808-0.080 1.158-0.285s0.633-0.509 0.814-0.872c0.181-0.364 0.252-0.772 0.205-1.175s-0.211-0.784-0.471-1.096c-0.131-0.162-0.202-0.364-0.201-0.572s0.074-0.41 0.206-0.571z"></path>
</symbol>
<symbol id="icon-pet-care" viewBox="0 0 32 32">
<path stroke-linejoin="round" stroke-linecap="round" stroke-miterlimit="4" stroke-width="0.9143" d="M11.86 13.385l9.133-9.133c0.136-0.136 0.296-0.243 0.473-0.316s0.367-0.111 0.558-0.111c0.192 0 0.381 0.038 0.558 0.111s0.338 0.181 0.473 0.316l4.693 4.691c0.273 0.274 0.427 0.645 0.427 1.032s-0.154 0.758-0.427 1.032l-17.771 17.771c-0.136 0.135-0.296 0.243-0.473 0.316s-0.367 0.111-0.558 0.111c-0.192 0-0.381-0.038-0.558-0.111s-0.338-0.181-0.473-0.316l-4.693-4.691c-0.135-0.136-0.243-0.296-0.316-0.473s-0.111-0.367-0.111-0.558c0-0.192 0.038-0.381 0.111-0.558s0.181-0.338 0.316-0.473l3.918-3.918M8.73 16.515l1.402-1.402M12.722 26.033l-1.508-1.508M15.792 22.963l-1.508-1.508M21.933 16.822l-1.508-1.508M25.003 13.752l-1.508-1.508M18.862 19.892l-1.508-1.508M3.446 28.555l-2.988 2.988M31.543 6.584l-6.127-6.127M2.599 25.88l1.207-1.207 3.521 3.521-1.207 1.207c-0.242 0.242-0.571 0.379-0.914 0.379s-0.672-0.136-0.914-0.379l-1.692-1.692c-0.243-0.242-0.379-0.571-0.379-0.914s0.136-0.672 0.379-0.914l0 0zM24.082 5.277l3.077-3.077 2.641 2.641-3.077 3.077-2.641-2.641z"></path>
</symbol>
<symbol id="icon-pet-food" viewBox="0 0 26 32">
<path stroke-linejoin="round" stroke-linecap="round" stroke-miterlimit="4" stroke-width="0.8312" d="M4.851 19.373l-4.371 7.938c-0.048 0.086-0.069 0.184-0.063 0.282s0.041 0.192 0.1 0.271c0.059 0.079 0.14 0.141 0.233 0.177s0.195 0.046 0.293 0.028l3.907-0.704c0.119-0.021 0.242-0.002 0.348 0.054s0.19 0.147 0.237 0.256l1.543 3.591c0.039 0.090 0.103 0.168 0.185 0.224s0.179 0.088 0.279 0.093c0.1 0.005 0.199-0.018 0.286-0.067s0.159-0.12 0.206-0.206l3.024-5.491M22.763 22.727l2.524 4.584c0.048 0.086 0.069 0.184 0.063 0.282s-0.041 0.192-0.1 0.271c-0.059 0.079-0.14 0.141-0.233 0.177s-0.195 0.046-0.293 0.028l-3.908-0.704c-0.119-0.021-0.242-0.002-0.348 0.054s-0.19 0.147-0.237 0.256l-1.543 3.591c-0.039 0.090-0.103 0.168-0.185 0.224s-0.179 0.089-0.279 0.093c-0.1 0.005-0.199-0.018-0.286-0.067s-0.159-0.12-0.206-0.206l-4.272-7.76M24.147 9.623l-0.599 1.809c-0.128 0.386-0.128 0.801 0 1.187l0.599 1.808c0.128 0.386 0.128 0.801 0 1.186s-0.377 0.721-0.711 0.96l-1.57 1.118c-0.335 0.238-0.584 0.574-0.712 0.96l-0.599 1.808c-0.128 0.386-0.377 0.722-0.711 0.96s-0.737 0.367-1.151 0.367h-1.939c-0.414-0-0.816 0.128-1.151 0.367l-1.57 1.118c-0.335 0.238-0.737 0.367-1.151 0.367s-0.816-0.128-1.151-0.367l-1.57-1.118c-0.334-0.238-0.737-0.367-1.151-0.367h-1.94c-0.413 0-0.816-0.128-1.151-0.367s-0.583-0.574-0.711-0.96l-0.599-1.808c-0.128-0.386-0.377-0.722-0.711-0.96l-1.57-1.118c-0.335-0.238-0.584-0.574-0.711-0.96s-0.128-0.801-0-1.186l0.6-1.808c0.128-0.386 0.128-0.801 0-1.187l-0.6-1.809c-0.128-0.386-0.128-0.801 0-1.186s0.377-0.721 0.711-0.96l1.57-1.118c0.334-0.238 0.583-0.574 0.711-0.96l0.599-1.809c0.128-0.385 0.378-0.721 0.712-0.959s0.738-0.366 1.151-0.366h1.942c0.413-0 0.816-0.128 1.151-0.367l1.57-1.118c0.334-0.238 0.737-0.367 1.151-0.367s0.816 0.128 1.151 0.367l1.57 1.118c0.335 0.238 0.738 0.366 1.151 0.367h1.939c0.413-0 0.816 0.128 1.151 0.366s0.584 0.574 0.711 0.96l0.599 1.809c0.128 0.386 0.377 0.721 0.712 0.96l1.57 1.118c0.334 0.239 0.582 0.574 0.709 0.96s0.127 0.8-0.001 1.185zM17.372 14.433c0 1.762-2.010 3.191-4.489 3.191s-4.489-1.428-4.489-3.191c0-1.762 2.010-3.191 4.489-3.191s4.489 1.428 4.489 3.191zM9.734 8.91c0.34 0.975-0.047 1.987-0.864 2.261s-1.755-0.294-2.095-1.269c-0.34-0.975 0.047-1.987 0.864-2.261s1.755 0.294 2.095 1.269zM18.13 7.645c0.817 0.274 1.204 1.286 0.864 2.261s-1.278 1.543-2.095 1.269c-0.817-0.274-1.204-1.286-0.864-2.261s1.278-1.543 2.095-1.269zM14.447 8.293c0 1.030-0.7 1.866-1.564 1.866s-1.564-0.835-1.564-1.866 0.7-1.866 1.564-1.866c0.864 0 1.564 0.835 1.564 1.866z"></path>
</symbol>
<symbol id="icon-pet-paw" viewBox="0 0 34 32">
<path stroke-linejoin="round" stroke-linecap="round" stroke-miterlimit="4" stroke-width="0.9552" d="M5.585 21.583c-0.31-0.224-0.609-0.456-0.896-0.695M3.409 19.671c-1.849-1.999-2.931-4.422-2.931-7.028 0.018-16.218 33.407-16.222 33.421 0 0.208 3.728-2.457 6.463-4.92 9.174-0.837 2.627-5.41 10.191-7.123 9.681-1.196-0.356-0.031-6.738-1.65-6.522-1.655 0.222-1.22 0.093-3.019 0.093-3.689 0-7.099-0.889-9.864-2.396M23.747 16.401c0 2.606-2.934 4.719-6.553 4.719s-6.553-2.113-6.553-4.719 2.934-4.719 6.553-4.719c3.619 0 6.553 2.113 6.553 4.719zM12.596 8.232c0.496 1.442-0.069 2.939-1.262 3.344s-2.563-0.435-3.059-1.877c-0.496-1.442 0.069-2.939 1.262-3.344s2.563 0.436 3.059 1.877zM24.854 6.36c1.193 0.405 1.758 1.902 1.262 3.344s-1.866 2.283-3.059 1.877c-1.193-0.405-1.758-1.902-1.262-3.344s1.866-2.283 3.059-1.877zM19.477 7.319c0 1.524-1.022 2.759-2.283 2.759s-2.283-1.235-2.283-2.759c0-1.524 1.022-2.759 2.283-2.759s2.283 1.235 2.283 2.759z"></path>
</symbol>
<symbol id="icon-play" viewBox="0 0 29 32">
<path d="M27.085 18.324l-22.241 12.698c-1.888 1.078-4.309-0.226-4.309-2.395v-25.395c0-2.169 2.42-3.473 4.309-2.395l22.241 12.697c1.881 1.074 1.881 3.716 0 4.79z"></path>
</symbol>
<symbol id="icon-quotes" viewBox="0 0 40 32">
<path d="M2.938 30.159c2.294 2.455 6.177 2.455 8.648 0 2.294-2.455 2.294-6.137-0.177-8.416-1.235-1.227-2.647-1.578-4.059-1.929-2.824-0.526-7.059-10.345 6.53-19.288l-0.353-0.526c-7.236 3.682-8.824 7.189-10.766 10.345-3.883 7.189-3.53 16.307 0.176 19.814zM29.058 30.159c2.294 2.455 6.177 2.455 8.648 0 2.294-2.455 2.294-6.137-0.176-8.416-1.235-1.227-2.647-1.578-4.059-1.929-2.824-0.526-7.060-10.345 6.53-19.288l-0.353-0.526c-7.236 3.682-8.824 7.189-10.766 10.345-3.883 7.189-3.53 16.307 0.177 19.814z"></path>
</symbol>
<symbol id="icon-tik-tok" viewBox="0 0 32 32">
<path d="M22.764 0h-5.393v21.797c0 2.597-2.074 4.731-4.655 4.731s-4.655-2.133-4.655-4.731c0-2.551 2.028-4.638 4.517-4.73v-5.472c-5.485 0.093-9.91 4.591-9.91 10.203 0 5.658 4.517 10.203 10.094 10.203s10.094-4.591 10.094-10.203v-11.177c2.028 1.484 4.517 2.365 7.145 2.412v-5.472c-4.056-0.139-7.237-3.478-7.237-7.559z"></path>
</symbol>
<symbol id="icon-twitter" viewBox="0 0 32 32">
<path d="M10.067 29c12.072 0 18.678-10.004 18.678-18.678 0-0.281-0.006-0.569-0.019-0.85 1.285-0.929 2.394-2.080 3.274-3.399-1.197 0.532-2.467 0.88-3.768 1.031 1.37-0.821 2.395-2.111 2.887-3.631-1.289 0.764-2.698 1.302-4.168 1.593-0.99-1.052-2.299-1.749-3.725-1.982s-2.889 0.009-4.163 0.691c-1.274 0.681-2.288 1.763-2.885 3.079s-0.745 2.791-0.419 4.199c-2.609-0.131-5.162-0.809-7.493-1.99s-4.387-2.838-6.036-4.865c-0.838 1.445-1.095 3.155-0.717 4.782s1.36 3.050 2.748 3.979c-1.042-0.033-2.062-0.314-2.974-0.819v0.081c-0.001 1.516 0.523 2.986 1.484 4.16s2.297 1.978 3.784 2.278c-0.966 0.264-1.979 0.303-2.962 0.113 0.419 1.304 1.236 2.445 2.335 3.263s2.426 1.272 3.795 1.3c-2.325 1.827-5.198 2.817-8.154 2.813-0.524-0.001-1.048-0.033-1.569-0.096 3.004 1.927 6.498 2.951 10.067 2.949z"></path>
</symbol>
</defs>
</svg>
